<mxfile host="app.diagrams.net" modified="2024-06-06T21:19:13.597Z" agent="Mozilla/5.0 (Macintosh; Intel Mac OS X 10_15_7) AppleWebKit/605.1.15 (KHTML, like Gecko) Version/17.4.1 Safari/605.1.15" etag="zpGyczcRvaMQ4GoRFKjI" version="24.5.1" type="device">
  <diagram name="Page-1" id="szMAPDH9eeRUYwo9Q8RJ">
    <mxGraphModel dx="331" dy="732" grid="1" gridSize="10" guides="1" tooltips="1" connect="1" arrows="1" fold="1" page="1" pageScale="1" pageWidth="827" pageHeight="1169" math="0" shadow="0">
      <root>
        <mxCell id="0" />
        <mxCell id="1" parent="0" />
        <mxCell id="elcs39x9UBZCtCeQUN5q-1" value="Ui" style="shape=umlLifeline;perimeter=lifelinePerimeter;whiteSpace=wrap;html=1;container=0;dropTarget=0;collapsible=0;recursiveResize=0;outlineConnect=0;portConstraint=eastwest;newEdgeStyle={&quot;edgeStyle&quot;:&quot;elbowEdgeStyle&quot;,&quot;elbow&quot;:&quot;vertical&quot;,&quot;curved&quot;:0,&quot;rounded&quot;:0};" parent="1" vertex="1">
          <mxGeometry x="950" y="41" width="100" height="599" as="geometry" />
        </mxCell>
        <mxCell id="elcs39x9UBZCtCeQUN5q-2" value="" style="html=1;points=[];perimeter=orthogonalPerimeter;outlineConnect=0;targetShapes=umlLifeline;portConstraint=eastwest;newEdgeStyle={&quot;edgeStyle&quot;:&quot;elbowEdgeStyle&quot;,&quot;elbow&quot;:&quot;vertical&quot;,&quot;curved&quot;:0,&quot;rounded&quot;:0};" parent="elcs39x9UBZCtCeQUN5q-1" vertex="1">
          <mxGeometry x="45" y="70" width="10" height="280" as="geometry" />
        </mxCell>
        <mxCell id="elcs39x9UBZCtCeQUN5q-3" value="RMIClient" style="shape=umlLifeline;perimeter=lifelinePerimeter;whiteSpace=wrap;html=1;container=0;dropTarget=0;collapsible=0;recursiveResize=0;outlineConnect=0;portConstraint=eastwest;newEdgeStyle={&quot;edgeStyle&quot;:&quot;elbowEdgeStyle&quot;,&quot;elbow&quot;:&quot;vertical&quot;,&quot;curved&quot;:0,&quot;rounded&quot;:0};" parent="1" vertex="1">
          <mxGeometry x="1285" y="41" width="100" height="599" as="geometry" />
        </mxCell>
        <mxCell id="elcs39x9UBZCtCeQUN5q-4" value="" style="html=1;points=[];perimeter=orthogonalPerimeter;outlineConnect=0;targetShapes=umlLifeline;portConstraint=eastwest;newEdgeStyle={&quot;edgeStyle&quot;:&quot;elbowEdgeStyle&quot;,&quot;elbow&quot;:&quot;vertical&quot;,&quot;curved&quot;:0,&quot;rounded&quot;:0};" parent="elcs39x9UBZCtCeQUN5q-3" vertex="1">
          <mxGeometry x="45" y="90" width="10" height="460" as="geometry" />
        </mxCell>
        <mxCell id="elcs39x9UBZCtCeQUN5q-5" value="&lt;font style=&quot;font-size: 10px;&quot;&gt;setAndExecuteCommand(gameCommand)&lt;/font&gt;" style="text;html=1;align=center;verticalAlign=middle;resizable=0;points=[];autosize=1;strokeColor=none;fillColor=none;" parent="1" vertex="1">
          <mxGeometry x="1336" y="184" width="230" height="30" as="geometry" />
        </mxCell>
        <mxCell id="elcs39x9UBZCtCeQUN5q-6" value="GameCommand" style="shape=umlLifeline;perimeter=lifelinePerimeter;whiteSpace=wrap;html=1;container=0;dropTarget=0;collapsible=0;recursiveResize=0;outlineConnect=0;portConstraint=eastwest;newEdgeStyle={&quot;edgeStyle&quot;:&quot;elbowEdgeStyle&quot;,&quot;elbow&quot;:&quot;vertical&quot;,&quot;curved&quot;:0,&quot;rounded&quot;:0};" parent="1" vertex="1">
          <mxGeometry x="1977.68" y="41" width="100" height="599" as="geometry" />
        </mxCell>
        <mxCell id="elcs39x9UBZCtCeQUN5q-7" value="" style="html=1;points=[];perimeter=orthogonalPerimeter;outlineConnect=0;targetShapes=umlLifeline;portConstraint=eastwest;newEdgeStyle={&quot;edgeStyle&quot;:&quot;elbowEdgeStyle&quot;,&quot;elbow&quot;:&quot;vertical&quot;,&quot;curved&quot;:0,&quot;rounded&quot;:0};" parent="elcs39x9UBZCtCeQUN5q-6" vertex="1">
          <mxGeometry x="44" y="220" width="10" height="110" as="geometry" />
        </mxCell>
        <mxCell id="elcs39x9UBZCtCeQUN5q-8" value="input" style="html=1;verticalAlign=bottom;startArrow=circle;startFill=1;endArrow=open;startSize=6;endSize=8;curved=0;rounded=0;" parent="1" edge="1">
          <mxGeometry width="80" relative="1" as="geometry">
            <mxPoint x="920" y="140" as="sourcePoint" />
            <mxPoint x="1000" y="141" as="targetPoint" />
          </mxGeometry>
        </mxCell>
        <mxCell id="elcs39x9UBZCtCeQUN5q-9" value="" style="endArrow=classic;html=1;rounded=0;" parent="1" source="elcs39x9UBZCtCeQUN5q-1" edge="1">
          <mxGeometry width="50" height="50" relative="1" as="geometry">
            <mxPoint x="1137.5866666666666" y="161" as="sourcePoint" />
            <mxPoint x="1332.42" y="161" as="targetPoint" />
          </mxGeometry>
        </mxCell>
        <mxCell id="elcs39x9UBZCtCeQUN5q-10" value="setAndExecuteCommand(new GameCommand)" style="text;html=1;align=center;verticalAlign=middle;resizable=0;points=[];autosize=1;strokeColor=none;fillColor=none;" parent="1" vertex="1">
          <mxGeometry x="1030" y="131" width="280" height="30" as="geometry" />
        </mxCell>
        <mxCell id="elcs39x9UBZCtCeQUN5q-11" value="GameController" style="shape=umlLifeline;perimeter=lifelinePerimeter;whiteSpace=wrap;html=1;container=0;dropTarget=0;collapsible=0;recursiveResize=0;outlineConnect=0;portConstraint=eastwest;newEdgeStyle={&quot;edgeStyle&quot;:&quot;elbowEdgeStyle&quot;,&quot;elbow&quot;:&quot;vertical&quot;,&quot;curved&quot;:0,&quot;rounded&quot;:0};" parent="1" vertex="1">
          <mxGeometry x="1777.68" y="42" width="100" height="598" as="geometry" />
        </mxCell>
        <mxCell id="elcs39x9UBZCtCeQUN5q-12" value="" style="html=1;points=[];perimeter=orthogonalPerimeter;outlineConnect=0;targetShapes=umlLifeline;portConstraint=eastwest;newEdgeStyle={&quot;edgeStyle&quot;:&quot;elbowEdgeStyle&quot;,&quot;elbow&quot;:&quot;vertical&quot;,&quot;curved&quot;:0,&quot;rounded&quot;:0};" parent="elcs39x9UBZCtCeQUN5q-11" vertex="1">
          <mxGeometry x="44" y="180" width="10" height="200" as="geometry" />
        </mxCell>
        <mxCell id="elcs39x9UBZCtCeQUN5q-13" value="" style="endArrow=classic;html=1;rounded=0;" parent="1" target="elcs39x9UBZCtCeQUN5q-7" edge="1">
          <mxGeometry width="50" height="50" relative="1" as="geometry">
            <mxPoint x="1827.68" y="296" as="sourcePoint" />
            <mxPoint x="1939.18" y="296" as="targetPoint" />
          </mxGeometry>
        </mxCell>
        <mxCell id="elcs39x9UBZCtCeQUN5q-15" value="" style="endArrow=classic;html=1;rounded=0;" parent="1" edge="1">
          <mxGeometry width="50" height="50" relative="1" as="geometry">
            <mxPoint x="1342" y="208" as="sourcePoint" />
            <mxPoint x="1573.4999999999995" y="208" as="targetPoint" />
          </mxGeometry>
        </mxCell>
        <mxCell id="elcs39x9UBZCtCeQUN5q-16" value="RmiServerGame" style="shape=umlLifeline;perimeter=lifelinePerimeter;whiteSpace=wrap;html=1;container=0;dropTarget=0;collapsible=0;recursiveResize=0;outlineConnect=0;portConstraint=eastwest;newEdgeStyle={&quot;edgeStyle&quot;:&quot;elbowEdgeStyle&quot;,&quot;elbow&quot;:&quot;vertical&quot;,&quot;curved&quot;:0,&quot;rounded&quot;:0};" parent="1" vertex="1">
          <mxGeometry x="1527.68" y="42" width="100" height="598" as="geometry" />
        </mxCell>
        <mxCell id="elcs39x9UBZCtCeQUN5q-17" value="" style="html=1;points=[];perimeter=orthogonalPerimeter;outlineConnect=0;targetShapes=umlLifeline;portConstraint=eastwest;newEdgeStyle={&quot;edgeStyle&quot;:&quot;elbowEdgeStyle&quot;,&quot;elbow&quot;:&quot;vertical&quot;,&quot;curved&quot;:0,&quot;rounded&quot;:0};" parent="elcs39x9UBZCtCeQUN5q-16" vertex="1">
          <mxGeometry x="44" y="150" width="10" height="110" as="geometry" />
        </mxCell>
        <mxCell id="elcs39x9UBZCtCeQUN5q-18" value="&lt;font style=&quot;font-size: 10px;&quot;&gt;setAndExecuteCommand(gameCommand)&lt;/font&gt;" style="text;html=1;align=center;verticalAlign=middle;resizable=0;points=[];autosize=1;strokeColor=none;fillColor=none;" parent="1" vertex="1">
          <mxGeometry x="1582.68" y="239" width="230" height="30" as="geometry" />
        </mxCell>
        <mxCell id="elcs39x9UBZCtCeQUN5q-19" value="" style="endArrow=classic;html=1;rounded=0;" parent="1" edge="1">
          <mxGeometry width="50" height="50" relative="1" as="geometry">
            <mxPoint x="1577.68" y="266" as="sourcePoint" />
            <mxPoint x="1827.68" y="266" as="targetPoint" />
          </mxGeometry>
        </mxCell>
        <mxCell id="elcs39x9UBZCtCeQUN5q-20" value="execute(gameController)" style="text;html=1;align=center;verticalAlign=middle;resizable=0;points=[];autosize=1;strokeColor=none;fillColor=none;" parent="1" vertex="1">
          <mxGeometry x="1840.68" y="269" width="160" height="30" as="geometry" />
        </mxCell>
        <mxCell id="elcs39x9UBZCtCeQUN5q-21" value="" style="endArrow=classic;html=1;rounded=0;" parent="1" target="elcs39x9UBZCtCeQUN5q-12" edge="1">
          <mxGeometry width="50" height="50" relative="1" as="geometry">
            <mxPoint x="2027.7500000000002" y="340.71" as="sourcePoint" />
            <mxPoint x="1917.6785714285718" y="340.71" as="targetPoint" />
          </mxGeometry>
        </mxCell>
        <mxCell id="elcs39x9UBZCtCeQUN5q-22" value="method()" style="text;html=1;align=center;verticalAlign=middle;resizable=0;points=[];autosize=1;strokeColor=none;fillColor=none;" parent="1" vertex="1">
          <mxGeometry x="1885.68" y="311" width="70" height="30" as="geometry" />
        </mxCell>
        <mxCell id="elcs39x9UBZCtCeQUN5q-23" value="GameModel" style="shape=umlLifeline;perimeter=lifelinePerimeter;whiteSpace=wrap;html=1;container=0;dropTarget=0;collapsible=0;recursiveResize=0;outlineConnect=0;portConstraint=eastwest;newEdgeStyle={&quot;edgeStyle&quot;:&quot;elbowEdgeStyle&quot;,&quot;elbow&quot;:&quot;vertical&quot;,&quot;curved&quot;:0,&quot;rounded&quot;:0};" parent="1" vertex="1">
          <mxGeometry x="2157.68" y="41" width="100" height="599" as="geometry" />
        </mxCell>
        <mxCell id="elcs39x9UBZCtCeQUN5q-24" value="" style="html=1;points=[];perimeter=orthogonalPerimeter;outlineConnect=0;targetShapes=umlLifeline;portConstraint=eastwest;newEdgeStyle={&quot;edgeStyle&quot;:&quot;elbowEdgeStyle&quot;,&quot;elbow&quot;:&quot;vertical&quot;,&quot;curved&quot;:0,&quot;rounded&quot;:0};" parent="elcs39x9UBZCtCeQUN5q-23" vertex="1">
          <mxGeometry x="44" y="320" width="10" height="110" as="geometry" />
        </mxCell>
        <mxCell id="elcs39x9UBZCtCeQUN5q-25" value="" style="endArrow=classic;html=1;rounded=0;" parent="1" edge="1">
          <mxGeometry width="50" height="50" relative="1" as="geometry">
            <mxPoint x="1827.18" y="391" as="sourcePoint" />
            <mxPoint x="2207.18" y="391" as="targetPoint" />
          </mxGeometry>
        </mxCell>
        <mxCell id="elcs39x9UBZCtCeQUN5q-26" value="modify model" style="text;html=1;align=center;verticalAlign=middle;resizable=0;points=[];autosize=1;strokeColor=none;fillColor=none;" parent="1" vertex="1">
          <mxGeometry x="1875.68" y="366" width="90" height="30" as="geometry" />
        </mxCell>
        <mxCell id="elcs39x9UBZCtCeQUN5q-27" value="receiveXUpdate(Update)" style="text;html=1;align=center;verticalAlign=middle;resizable=0;points=[];autosize=1;strokeColor=none;fillColor=none;" parent="1" vertex="1">
          <mxGeometry x="1587.68" y="411" width="160" height="30" as="geometry" />
        </mxCell>
        <mxCell id="elcs39x9UBZCtCeQUN5q-28" value="" style="endArrow=classic;html=1;rounded=0;" parent="1" edge="1">
          <mxGeometry width="50" height="50" relative="1" as="geometry">
            <mxPoint x="2197.68" y="441" as="sourcePoint" />
            <mxPoint x="1341.003529411765" y="441" as="targetPoint" />
          </mxGeometry>
        </mxCell>
        <mxCell id="elcs39x9UBZCtCeQUN5q-29" value="receiveUpdate(update)" style="text;html=1;align=center;verticalAlign=middle;resizable=0;points=[];autosize=1;strokeColor=none;fillColor=none;" parent="1" vertex="1">
          <mxGeometry x="1190" y="450" width="150" height="30" as="geometry" />
        </mxCell>
        <mxCell id="elcs39x9UBZCtCeQUN5q-30" value="" style="endArrow=classic;html=1;rounded=0;" parent="1" edge="1">
          <mxGeometry width="50" height="50" relative="1" as="geometry">
            <mxPoint x="1332.25" y="477.0000000000001" as="sourcePoint" />
            <mxPoint x="1327.75" y="517" as="targetPoint" />
            <Array as="points">
              <mxPoint x="1197.75" y="477" />
              <mxPoint x="1197.75" y="517" />
            </Array>
          </mxGeometry>
        </mxCell>
        <mxCell id="elcs39x9UBZCtCeQUN5q-31" value="Update" style="shape=umlLifeline;perimeter=lifelinePerimeter;whiteSpace=wrap;html=1;container=0;dropTarget=0;collapsible=0;recursiveResize=0;outlineConnect=0;portConstraint=eastwest;newEdgeStyle={&quot;edgeStyle&quot;:&quot;elbowEdgeStyle&quot;,&quot;elbow&quot;:&quot;vertical&quot;,&quot;curved&quot;:0,&quot;rounded&quot;:0};" parent="1" vertex="1">
          <mxGeometry x="2320" y="42" width="100" height="598" as="geometry" />
        </mxCell>
        <mxCell id="elcs39x9UBZCtCeQUN5q-32" value="" style="html=1;points=[];perimeter=orthogonalPerimeter;outlineConnect=0;targetShapes=umlLifeline;portConstraint=eastwest;newEdgeStyle={&quot;edgeStyle&quot;:&quot;elbowEdgeStyle&quot;,&quot;elbow&quot;:&quot;vertical&quot;,&quot;curved&quot;:0,&quot;rounded&quot;:0};" parent="elcs39x9UBZCtCeQUN5q-31" vertex="1">
          <mxGeometry x="45" y="490" width="10" height="80" as="geometry" />
        </mxCell>
        <mxCell id="elcs39x9UBZCtCeQUN5q-33" value="" style="endArrow=classic;html=1;rounded=0;" parent="1" target="elcs39x9UBZCtCeQUN5q-32" edge="1">
          <mxGeometry width="50" height="50" relative="1" as="geometry">
            <mxPoint x="1341" y="560" as="sourcePoint" />
            <mxPoint x="1391" y="510" as="targetPoint" />
          </mxGeometry>
        </mxCell>
        <mxCell id="elcs39x9UBZCtCeQUN5q-34" value="execute(gameView)" style="text;html=1;align=center;verticalAlign=middle;resizable=0;points=[];autosize=1;strokeColor=none;fillColor=none;" parent="1" vertex="1">
          <mxGeometry x="1650" y="535" width="130" height="30" as="geometry" />
        </mxCell>
        <mxCell id="elcs39x9UBZCtCeQUN5q-36" value="GameView" style="shape=umlLifeline;perimeter=lifelinePerimeter;whiteSpace=wrap;html=1;container=0;dropTarget=0;collapsible=0;recursiveResize=0;outlineConnect=0;portConstraint=eastwest;newEdgeStyle={&quot;edgeStyle&quot;:&quot;elbowEdgeStyle&quot;,&quot;elbow&quot;:&quot;vertical&quot;,&quot;curved&quot;:0,&quot;rounded&quot;:0};" parent="1" vertex="1">
          <mxGeometry x="2490" y="41.5" width="100" height="598" as="geometry" />
        </mxCell>
        <mxCell id="elcs39x9UBZCtCeQUN5q-37" value="" style="html=1;points=[];perimeter=orthogonalPerimeter;outlineConnect=0;targetShapes=umlLifeline;portConstraint=eastwest;newEdgeStyle={&quot;edgeStyle&quot;:&quot;elbowEdgeStyle&quot;,&quot;elbow&quot;:&quot;vertical&quot;,&quot;curved&quot;:0,&quot;rounded&quot;:0};" parent="elcs39x9UBZCtCeQUN5q-36" vertex="1">
          <mxGeometry x="45" y="523.5" width="10" height="56.5" as="geometry" />
        </mxCell>
        <mxCell id="elcs39x9UBZCtCeQUN5q-38" value="" style="endArrow=classic;html=1;rounded=0;" parent="1" target="elcs39x9UBZCtCeQUN5q-37" edge="1">
          <mxGeometry width="50" height="50" relative="1" as="geometry">
            <mxPoint x="2370" y="590" as="sourcePoint" />
            <mxPoint x="2420" y="540" as="targetPoint" />
          </mxGeometry>
        </mxCell>
        <mxCell id="elcs39x9UBZCtCeQUN5q-40" value="save update" style="text;html=1;align=center;verticalAlign=middle;resizable=0;points=[];autosize=1;strokeColor=none;fillColor=none;" parent="1" vertex="1">
          <mxGeometry x="2400" y="565" width="90" height="30" as="geometry" />
        </mxCell>
      </root>
    </mxGraphModel>
  </diagram>
</mxfile>
